<?xml version="1.0" encoding="utf-8"?>
<?xml-stylesheet href="theme.css" type="text/css"?>
<!DOCTYPE svg PUBLIC "-//W3C//DTD SVG 1.1//EN" "http://www.w3.org/Graphics/SVG/1.1/DTD/svg11.dtd">
<svg id="Layer_1" data-name="Layer 1" xmlns="http://www.w3.org/2000/svg" xmlns:xlink="http://www.w3.org/1999/xlink" viewBox="0 0 421.73 37.73">
    <defs>
        <style>.cls-1{fill:url(#linear-gradient);}.cls-2{fill:#78c42a;}</style>
        <linearGradient id="linear-gradient" x1="104.96" y1="139.01" x2="326.47" y2="-82.51" gradientUnits="userSpaceOnUse">
            <stop offset="0" stop-color="#005793"/>
            <stop offset="0.44" stop-color="#005793"/>
            <stop offset="0.78" stop-color="#78c42a"/>
            <stop offset="0.82" stop-color="#78c42a"/>
            <stop offset="0.93" stop-color="#78c42a"/>
            <stop offset="1" stop-color="#78c42a"/>
        </linearGradient>
    </defs>
    <title>Renaissance</title>
    <path class="cls-1" d="M369.07,47c-11.53,0-20.22-8.14-20.22-18.92,0-10.45,8.76-18.64,19.94-18.64,5.5,0,9.49.93,11.39,1.8l.5.23,1.41,5.92-2.14-1a21.62,21.62,0,0,0-10.66-2.27c-8.82,0-15.72,6.14-15.72,14s7.08,14.2,15.78,14.2c5.64,0,8.6-1.11,10.75-2.2l2.17-1.1-1.43,6-.55.22C378,46.13,375,47,369.07,47Zm-128.62-.06a36.12,36.12,0,0,1-11.62-1.7l-.6-.21-1.3-5.78,2,.85a27.38,27.38,0,0,0,11,2.12c8,0,12.81-2.13,12.81-5.71,0-2.14-.89-4.33-7.31-5.91l-8.62-2.1c-2.52-.62-9.21-2.26-9.21-9,0-3.81,2.13-10.2,16.36-10.2a40.12,40.12,0,0,1,10.46,1.24l.62.19,1.39,5.63-2-.69A28.57,28.57,0,0,0,244.2,14c-7.47,0-11.75,1.94-11.75,5.31,0,2.32,1,3.6,7.07,5l8.12,1.93c6.17,1.44,10,5.19,10,9.78C257.64,43.25,251.86,46.93,240.45,46.93Zm-36.34,0a36.12,36.12,0,0,1-11.62-1.7l-.6-.21-1.29-5.78,2,.85a27.38,27.38,0,0,0,11,2.12c8,0,12.81-2.13,12.81-5.71,0-2.14-.89-4.33-7.31-5.91l-8.62-2.1c-2.52-.62-9.21-2.27-9.21-9,0-3.81,2.13-10.2,16.36-10.2a40.12,40.12,0,0,1,10.46,1.24l.62.19,1.39,5.63-2-.69A28.57,28.57,0,0,0,207.86,14c-7.47,0-11.75,1.94-11.75,5.31,0,2.32,1,3.6,7.07,5l8.12,1.93c6.17,1.44,10,5.19,10,9.78C221.3,43.25,215.52,46.93,204.1,46.93ZM33.6,33.1c6.16-1.66,9.92-5.9,9.92-11.33,0-7.71-6.39-11.62-19-11.62-3.18,0-8.22.17-11.26.34l-1.07.06V46.25H17V33.69c2.85.14,6.67.16,8.33.16,1,0,2.1,0,3,0a78.65,78.65,0,0,0,6.48,11.74l.34.46h6.18l-1.28-1.81A92.81,92.81,0,0,1,33.6,33.1Zm-8.12-3.92c-2.2,0-6-.17-8.5-.32V15c3-.19,6.65-.21,7.77-.21,14,0,14,5.36,14,7.13,0,3.39-2.89,5.89-7.91,6.86A32,32,0,0,1,25.48,29.18ZM389.39,45.91V10.44h30l.76,4.72h-26V25.61h20.38v4.72H394.17V41.19h26.07l-1,4.72Zm-52.34,0L311.63,17.8v28.1h-4.78V10.44h4.37l24.91,27.48V10.44h4.72V45.91Zm-159.71,0V10.44h4.78V45.91Zm-57.89,0L94,17.8v28.1H89.25V10.44h4.37l24.91,27.48V10.44h4.72V45.91Zm-68,0V10.44h30l.76,4.72h-26V25.61H76.61v4.72H56.23V41.19H82.3l-1,4.72Zm116.72,0-14.6-35.47h-8.07l-10.42,27h0l-3.27,8.47H137L139,40.58A24.79,24.79,0,0,1,160.57,40l2.4,5.86ZM150.34,33.11a29.42,29.42,0,0,0-9,1.39l7.46-19.35h1.56l7.78,19A29.58,29.58,0,0,0,150.34,33.11Zm148,12.79L283.7,10.44h-8.07l-10.42,27h0l-3.27,8.47h5.17l2.07-5.32A24.79,24.79,0,0,1,290.7,40l2.4,5.86ZM280.48,33.11a29.42,29.42,0,0,0-9,1.39L279,15.16h1.56l7.78,19A29.58,29.58,0,0,0,280.48,33.11Z" transform="translate(-12.2 -9.25)"/>
<script type="text/javascript" xlink:href="theme.js"></script>
</svg>